<?xml version="1.0" encoding="UTF-8"?>
<svg version="1.1" xmlns="http://www.w3.org/2000/svg" width="1051" height="346">
<path d="M0 0 C4.15164472 3.51040558 8.08507078 7.22985367 12 11 C12.64453125 11.58136719 13.2890625 12.16273437 13.953125 12.76171875 C33.63296547 31.01615021 45.80455148 61.09797986 47.12597656 87.51879883 C48.104791 121.72464645 38.78579208 153.58068453 14.93945312 178.89916992 C13.62935874 180.26904309 12.31483289 181.6346743 11 183 C10.12794922 183.96679688 10.12794922 183.96679688 9.23828125 184.953125 C-4.91795912 200.21476449 -26.01004355 210.26163995 -46 215 C-46.00257813 215.92941406 -46.00515625 216.85882813 -46.0078125 217.81640625 C-46.38308306 229.81255521 -46.38308306 229.81255521 -51.33203125 234.86328125 C-53.20190001 236.13759462 -54.78754982 236.5920645 -57 237 C-57 239.64 -57 242.28 -57 245 C-56.278125 245.0825 -55.55625 245.165 -54.8125 245.25 C-51.290451 246.18921307 -49.58177952 247.42675529 -47 250 C-46.04802274 254.38469527 -46.29428125 258.5808564 -47 263 C-49.83171595 267.09025637 -51.1740236 267.7935059 -56 269 C-56.33 271.97 -56.66 274.94 -57 278 C-55.906875 278.103125 -54.81375 278.20625 -53.6875 278.3125 C-49.10413274 279.1670261 -49.10413274 279.1670261 -47 282 C-45.3143747 290.41294066 -48.55197257 297.13053729 -52.9375 304.0625 C-58.53453333 310.30669031 -67.25368829 314.4178961 -75 317 C-75 284.33 -75 251.66 -75 218 C-77.64 218 -80.28 218 -83 218 C-82.99777939 219.27564316 -82.99555878 220.55128632 -82.99327087 221.86558533 C-82.97304173 233.85893148 -82.95802896 245.85227419 -82.94818783 257.84563351 C-82.94295842 264.0122492 -82.93585973 270.17885118 -82.92456055 276.34545898 C-82.91373371 282.29116006 -82.9077236 288.23684789 -82.90512276 294.18255806 C-82.90326814 296.45646943 -82.89964683 298.73038004 -82.89426994 301.00428581 C-82.88706222 304.1772712 -82.88600894 307.35020117 -82.88647461 310.52319336 C-82.88287933 311.47337341 -82.87928406 312.42355347 -82.87557983 313.40252686 C-82.88594784 319.88594784 -82.88594784 319.88594784 -84 321 C-87.92894886 321.45685452 -89.75313122 321.13767682 -93.25 319.1875 C-95.88814693 317.08897403 -97.78442871 315.56472567 -98.26171303 312.10035419 C-98.27000916 311.02047371 -98.27000916 311.02047371 -98.2784729 309.91877747 C-98.28963638 309.09006638 -98.30079987 308.26135529 -98.31230164 307.40753174 C-98.31446182 306.50194519 -98.31662201 305.59635864 -98.31884766 304.66333008 C-98.32889328 303.70704208 -98.3389389 302.75075409 -98.34928894 301.76548767 C-98.3802145 298.60017506 -98.39718217 295.43494738 -98.4140625 292.26953125 C-98.4327666 290.07662724 -98.45233944 287.88373048 -98.4727478 285.69084167 C-98.52415504 279.91558094 -98.56373479 274.14029686 -98.60089111 268.3649292 C-98.64087693 262.47304465 -98.69199397 256.58125799 -98.7421875 250.68945312 C-98.83904851 239.12637075 -98.92342072 227.56323323 -99 216 C-100.23606491 215.66389709 -101.47212982 215.32779419 -102.74565125 214.98150635 C-104.38345548 214.53242331 -106.02121454 214.08317552 -107.65893555 213.63378906 C-108.47172722 213.4132486 -109.28451889 213.19270813 -110.12194061 212.96548462 C-115.94149167 211.36369042 -121.40553377 209.45688372 -126.8125 206.75 C-127.59890869 206.36505371 -128.38531738 205.98010742 -129.19555664 205.58349609 C-141.31633899 199.49525101 -151.28678665 191.35399688 -161 182 C-161.96679688 181.12794922 -161.96679688 181.12794922 -162.953125 180.23828125 C-182.63296547 161.98384979 -194.80455148 131.90202014 -196.12597656 105.48120117 C-197.104791 71.27535355 -187.78579208 39.41931547 -163.93945312 14.10083008 C-162.62935874 12.73095691 -161.31483289 11.3653257 -160 10 C-159.41863281 9.35546875 -158.83726562 8.7109375 -158.23828125 8.046875 C-118.38242531 -34.92115105 -44.45496831 -35.16756092 0 0 Z " fill="#DD313B" transform="translate(196,25)"/>
<path d="M0 0 C4.15164472 3.51040558 8.08507078 7.22985367 12 11 C12.64453125 11.58136719 13.2890625 12.16273437 13.953125 12.76171875 C33.63296547 31.01615021 45.80455148 61.09797986 47.12597656 87.51879883 C48.104791 121.72464645 38.78579208 153.58068453 14.93945312 178.89916992 C13.62935874 180.26904309 12.31483289 181.6346743 11 183 C10.12794922 183.96679688 10.12794922 183.96679688 9.23828125 184.953125 C-5.03814014 200.34432992 -25.95869234 209.98967309 -46 215 C-46.33 219.62 -46.66 224.24 -47 229 C-47.33 229 -47.66 229 -48 229 C-48.14575327 225.60462148 -48.23421542 222.21005098 -48.3125 218.8125 C-48.3753418 217.37293945 -48.3753418 217.37293945 -48.43945312 215.90429688 C-48.56377852 208.71828879 -48.56377852 208.71828879 -45.60546875 204.94921875 C-44.31576172 203.98435547 -44.31576172 203.98435547 -43 203 C-42.34 202.34 -41.68 201.68 -41 201 C-39.46693984 200.73567928 -37.9220548 200.53858586 -36.375 200.375 C-22.04590637 197.94602092 -9.7060846 189.25625051 -0.6875 178.125 C7.10707101 166.9962074 10.76794902 153.55427582 9 140 C5.28554873 135.63960649 5.28554873 135.63960649 -6 136 C-6 112.57 -6 89.14 -6 65 C-7.32 64.34 -8.64 63.68 -10 63 C-11.52427514 61.95488507 -13.02688731 60.87777799 -14.51171875 59.77734375 C-15.35154297 59.15666016 -16.19136719 58.53597656 -17.05664062 57.89648438 C-17.92482422 57.25001953 -18.79300781 56.60355469 -19.6875 55.9375 C-21.00717773 54.96200195 -21.00717773 54.96200195 -22.35351562 53.96679688 C-28.83730934 49.16269066 -28.83730934 49.16269066 -30 48 C-33.25397204 47.4444438 -35.29227952 47.54963242 -38.10546875 49.33984375 C-39.51295015 50.42942407 -40.90084175 51.54489077 -42.265625 52.6875 C-44 54 -44 54 -46 54 C-46 54.66 -46 55.32 -46 56 C-46.66 56 -47.32 56 -48 56 C-48.0154612 55.17647789 -48.0154612 55.17647789 -48.03123474 54.33631897 C-48.13907947 48.64278719 -48.25369449 42.94942079 -48.37231445 37.25610352 C-48.41573423 35.12885993 -48.45740393 33.0015799 -48.49731445 30.87426758 C-48.55484707 27.82361849 -48.61858967 24.77315411 -48.68359375 21.72265625 C-48.70866249 20.28672874 -48.70866249 20.28672874 -48.73423767 18.8217926 C-48.75418289 17.94095505 -48.77412811 17.06011749 -48.79467773 16.15258789 C-48.81022202 15.37315323 -48.8257663 14.59371857 -48.84178162 13.79066467 C-48.80889119 11.97706647 -48.80889119 11.97706647 -50 11 C-51.52404807 10.9016133 -53.05261413 10.87201466 -54.57983398 10.87060547 C-55.55431992 10.86745331 -56.52880585 10.86430115 -57.53282166 10.86105347 C-59.12339134 10.86408981 -59.12339134 10.86408981 -60.74609375 10.8671875 C-61.82754166 10.86623077 -62.90898956 10.86527405 -64.02320862 10.86428833 C-66.31568459 10.86360629 -68.60816248 10.86546223 -70.90063477 10.86962891 C-74.41882655 10.87497164 -77.93689037 10.86968736 -81.45507812 10.86328125 C-83.67708362 10.86394213 -85.89908903 10.86522349 -88.12109375 10.8671875 C-89.17944931 10.86516327 -90.23780487 10.86313904 -91.32823181 10.86105347 C-92.3058699 10.86420563 -93.283508 10.86735779 -94.29077148 10.87060547 C-95.58530495 10.87179886 -95.58530495 10.87179886 -96.9059906 10.87301636 C-99.05926472 10.86619331 -99.05926472 10.86619331 -101 12 C-101.33 26.52 -101.66 41.04 -102 56 C-109 52 -109 52 -111.5625 49.75 C-114.72541779 47.47918723 -116.15502024 47.53155253 -120 48 C-122.29669965 49.44855295 -124.20264786 50.82451434 -126.25 52.5625 C-127.29464243 53.42069359 -128.34159158 54.27608568 -129.390625 55.12890625 C-129.91288666 55.57443848 -130.43514832 56.0199707 -130.97323608 56.47900391 C-133 58 -133 58 -135.49795532 59.24157715 C-138.56639241 60.88911795 -140.68104763 62.3851711 -143 65 C-144.46825056 70.38752835 -144.30752602 75.6835448 -144.1953125 81.21484375 C-144.19910344 82.79669297 -144.20729868 84.37853722 -144.21969604 85.96034241 C-144.24043802 90.1057462 -144.20168581 94.24850258 -144.15020752 98.39355469 C-144.10822695 102.63023828 -144.12296112 106.8666916 -144.1328125 111.10351562 C-144.14380694 119.40315751 -144.09190396 127.70086247 -144 136 C-144.84304687 136.04898438 -145.68609375 136.09796875 -146.5546875 136.1484375 C-148.19824219 136.26058594 -148.19824219 136.26058594 -149.875 136.375 C-151.51082031 136.47941406 -151.51082031 136.47941406 -153.1796875 136.5859375 C-156.13046474 136.73253491 -156.13046474 136.73253491 -158 139 C-159.07138508 150.72221325 -157.58379368 160.48084606 -152.1875 170.8125 C-151.85621094 171.44728271 -151.52492187 172.08206543 -151.18359375 172.73608398 C-148.94217854 176.80996389 -146.35603796 179.7376734 -143 183 C-143 183.66 -143 184.32 -143 185 C-142.4225 185.27199219 -141.845 185.54398438 -141.25 185.82421875 C-139.00343412 186.99820543 -137.05751337 188.33561067 -135 189.8125 C-127.73479167 194.68768071 -120.02318701 197.64171684 -111.5 199.5 C-106.31081081 200.68918919 -106.31081081 200.68918919 -103.5 203.5 C-103.005 204.325 -102.51 205.15 -102 206 C-101.2575 206.45375 -100.515 206.9075 -99.75 207.375 C-99.1725 207.91125 -98.595 208.4475 -98 209 C-97.92917221 211.3322581 -97.92494308 213.66787417 -98 216 C-122.95514743 210.43888652 -142.5975 199.72193417 -161 182 C-161.96679688 181.12794922 -161.96679688 181.12794922 -162.953125 180.23828125 C-182.63296547 161.98384979 -194.80455148 131.90202014 -196.12597656 105.48120117 C-197.104791 71.27535355 -187.78579208 39.41931547 -163.93945312 14.10083008 C-162.62935874 12.73095691 -161.31483289 11.3653257 -160 10 C-159.41863281 9.35546875 -158.83726562 8.7109375 -158.23828125 8.046875 C-118.38242531 -34.92115105 -44.45496831 -35.16756092 0 0 Z " fill="#FCEBE0" transform="translate(196,25)"/>
<path d="M0 0 C9.24 0 18.48 0 28 0 C28.01458252 2.34714111 28.02916504 4.69428223 28.04418945 7.11254883 C28.09448422 14.85995762 28.16107001 22.60716433 28.23571491 30.35437489 C28.2804784 35.05239466 28.31972118 39.7503265 28.34643555 44.44848633 C28.3724091 48.98089665 28.41276885 53.5129697 28.46318626 58.04517174 C28.47989537 59.7759145 28.49138441 61.50671564 28.49761391 63.23752785 C28.50721132 65.65846903 28.53521671 68.07853949 28.56762695 70.49926758 C28.56619186 71.21783936 28.56475677 71.93641113 28.5632782 72.67675781 C28.61796134 75.55710998 28.68223081 77.5375846 30.33952332 79.94926453 C32.92614971 81.58605963 35.01807144 81.31061756 38 81 C38.99 80.34 39.98 79.68 41 79 C41.31302023 76.03727314 41.31302023 76.03727314 41.08984375 72.55859375 C41.07115234 71.25212891 41.05246094 69.94566406 41.03320312 68.59960938 C40.99437365 66.52552928 40.93856495 64.4582579 40.83227539 62.38647461 C40.53153943 56.0266361 40.29981788 50.99190064 44.56689453 45.99267578 C47.49975051 43.51573694 50.46030016 41.52865361 54 40 C59.27661939 40.51002314 62.88473562 42.87038104 66.88299561 46.22070312 C71.19941999 51.88749571 70.20658491 58.95555203 69.9765625 65.75 C69.95788643 67.37519968 69.94366352 69.00045607 69.9336853 70.62573242 C69.89569304 74.8818802 69.79764775 79.13455723 69.68664551 83.38934326 C69.58392388 87.7395533 69.53858733 92.09033028 69.48828125 96.44140625 C69.38137165 104.96252176 69.21095111 113.48082793 69 122 C66.4088264 120.74347125 63.82222257 119.47875825 61.23754883 118.20898438 C60.50627022 117.85543884 59.77499161 117.50189331 59.02155304 117.13763428 C53.92397183 114.62225724 50.15138431 112.06699173 46.6875 107.5 C45.7356405 106.36970773 44.775885 105.24602074 43.80859375 104.12890625 C43.34565918 103.59410645 42.88272461 103.05930664 42.40576172 102.50830078 C36.06723039 95.70742434 27.39563796 90.66774264 18.5625 87.9375 C8.55842762 88.11301004 -0.36976619 97.52047904 -7.16015625 104.08984375 C-10.22959491 107.36675938 -12.83084308 110.56662576 -14.9296875 114.5390625 C-20.44304416 124.74599015 -20.44304416 124.74599015 -25.98828125 126.78515625 C-31.29468373 128.28795541 -36.47468921 129 -42 129 C-42.25536154 118.70805082 -42.45056193 108.41685999 -42.56993389 98.12238312 C-42.62724209 93.34151491 -42.70490008 88.56282021 -42.82983398 83.78320312 C-42.94974957 79.16644621 -43.01520264 74.55177294 -43.04364967 69.93357849 C-43.06390769 68.17589 -43.10347334 66.41831027 -43.16303062 64.66151428 C-43.608545 50.96984677 -43.608545 50.96984677 -39.65371704 46.12670898 C-35.4047782 42.90272114 -31.37584231 40.54508297 -26 40 C-20.98094291 41.94382253 -16.32413306 44.67339166 -13 49 C-11.30667138 54.72631683 -11.48225827 60.08303456 -11.75 66 C-11.77561182 67.54027548 -11.79519302 69.08066363 -11.80859375 70.62109375 C-11.82826731 72.77797747 -11.85694478 74.93048972 -11.93231201 77.08618164 C-11.98937767 78.7232822 -11.99946677 80.36190524 -12 82 C-10.10511048 83.89488952 -7.42860854 83.18019112 -4.91015625 83.23046875 C-2.7587364 83.1702792 -2.7587364 83.1702792 -1 81 C-0.78264832 78.41214534 -0.68861179 75.92801958 -0.68115234 73.33740234 C-0.66608391 72.15190544 -0.66608391 72.15190544 -0.65071106 70.94245911 C-0.61975866 68.32362615 -0.60281067 65.70489595 -0.5859375 63.0859375 C-0.56723553 61.27274687 -0.54766285 59.45956502 -0.5272522 57.64639282 C-0.47582235 52.86903047 -0.43625487 48.09163987 -0.39910889 43.31414795 C-0.35913709 38.44113108 -0.30801371 33.56823283 -0.2578125 28.6953125 C-0.16092472 19.13028318 -0.07759152 9.56520534 0 0 Z " fill="#FCEBE1" transform="translate(107,48)"/>
<path d="M0 0 C1.1653125 -0.00128906 2.330625 -0.00257812 3.53125 -0.00390625 C4.7584375 -0.00003906 5.985625 0.00382812 7.25 0.0078125 C9.09078125 0.00201172 9.09078125 0.00201172 10.96875 -0.00390625 C12.71671875 -0.00197266 12.71671875 -0.00197266 14.5 0 C15.57765625 0.00112793 16.6553125 0.00225586 17.765625 0.00341797 C20.25 0.1328125 20.25 0.1328125 21.25 1.1328125 C21.33370923 3.21700366 21.34628506 5.30407144 21.33178711 7.38989258 C21.32872055 8.04375946 21.32565399 8.69762634 21.32249451 9.37130737 C21.31532023 10.79764321 21.3059204 12.22396914 21.29459953 13.65027809 C21.27722537 15.91779357 21.26691218 18.18523857 21.25868225 20.45280457 C21.23423695 26.9027679 21.19909178 33.35263816 21.15405273 39.80249023 C21.12701657 43.74587557 21.1101346 47.68920445 21.09918404 51.63266563 C21.09303381 53.1271642 21.08310522 54.62165276 21.06910515 56.1160984 C20.39159588 73.20110196 20.39159588 73.20110196 27.25 88.1328125 C31.59757828 92.48039078 36.43755212 94.07282643 42.484375 94.16796875 C49.23382705 93.69085231 54.81192727 91.57088523 59.625 86.7578125 C62.88781719 81.48710781 63.54782609 76.49369094 63.55297852 70.39916992 C63.56563751 69.27372772 63.56563751 69.27372772 63.57855225 68.12554932 C63.60419714 65.66311973 63.61643565 63.20080957 63.62890625 60.73828125 C63.6450887 59.02288371 63.66226948 57.30749532 63.68040466 55.59211731 C63.72597836 51.08973406 63.7608512 46.58733853 63.79260254 42.08483887 C63.84459927 34.86048319 63.90946528 27.63626103 63.98081779 20.41207314 C64.0037057 17.88542006 64.01993565 15.35878427 64.03553772 12.83207703 C64.04893673 11.2945435 64.06255085 9.75701182 64.07641602 8.21948242 C64.07902939 7.5124971 64.08164276 6.80551178 64.08433533 6.07710266 C64.13635615 1.24645635 64.13635615 1.24645635 65.25 0.1328125 C67.24964982 0.04523247 69.2523611 0.02584674 71.25390625 0.03515625 C72.46884766 0.03837891 73.68378906 0.04160156 74.93554688 0.04492188 C76.21494141 0.05330078 77.49433594 0.06167969 78.8125 0.0703125 C80.09576172 0.07482422 81.37902344 0.07933594 82.70117188 0.08398438 C85.88416022 0.09581705 89.06705762 0.11230182 92.25 0.1328125 C92.29648925 10.26040635 92.33195315 20.3879745 92.35362434 30.51565361 C92.36402922 35.21913314 92.37812778 39.92253927 92.40087891 44.62597656 C92.42272539 49.17121215 92.43459337 53.71637746 92.43975449 58.26166153 C92.44342915 59.9894636 92.45060446 61.71726215 92.46146011 63.44503403 C92.55643341 79.19774459 91.69107216 94.10376232 80.25 106.1328125 C68.93842661 115.74861339 57.58818611 117.32050558 43.1875 117.3828125 C42.02283203 117.4034375 40.85816406 117.4240625 39.65820312 117.4453125 C25.67497633 117.50763329 13.9209021 114.46247304 3.4375 104.8828125 C-7.72578059 92.87702016 -7.04975483 77.14483884 -6.98046875 61.8125 C-6.97927455 60.05941807 -6.9788243 58.30633549 -6.9790802 56.55325317 C-6.97752579 52.90395018 -6.96931002 49.25474674 -6.95581055 45.60546875 C-6.93869559 40.91894341 -6.93500035 36.23252577 -6.93575573 31.54597282 C-6.9354847 27.9378862 -6.93001634 24.3298233 -6.92275429 20.72174454 C-6.91956673 18.99209904 -6.91760001 17.26245086 -6.91686058 15.53280258 C-6.91470507 13.12973115 -6.90598187 10.72677692 -6.89526367 8.32373047 C-6.89571686 7.6058989 -6.89617004 6.88806732 -6.89663696 6.14848328 C-6.85540822 -0.1368308 -6.12673835 0.00641256 0 0 Z " fill="#E4464C" transform="translate(307.75,95.8671875)"/>
<path d="M0 0 C8.58 0 17.16 0 26 0 C27.62607636 1.62607636 27.16590931 3.45683065 27.20532227 5.70336914 C27.22526749 6.70433121 27.24521271 7.70529327 27.26576233 8.73658752 C27.28247482 9.8251152 27.29918732 10.91364288 27.31640625 12.03515625 C27.33718735 13.14354355 27.35796844 14.25193085 27.37937927 15.39390564 C27.44499623 18.95003808 27.50381596 22.50624703 27.5625 26.0625 C27.60567368 28.46680493 27.64928758 30.87110199 27.69335938 33.27539062 C27.80068992 39.18351185 27.90243331 45.09170991 28 51 C34.51032666 42.76912354 40.94689067 34.51041622 47.09570312 26.00390625 C48.35062971 24.30067255 49.66928614 22.64470252 51 21 C51.66 21 52.32 21 53 21 C53.23847656 20.46375 53.47695313 19.9275 53.72265625 19.375 C55.35240969 16.34475508 57.35384538 13.73714893 59.4375 11 C60.21996094 9.96875 61.00242187 8.9375 61.80859375 7.875 C62.53175781 6.92625 63.25492188 5.9775 64 5 C64.50660156 4.236875 65.01320313 3.47375 65.53515625 2.6875 C67.37538293 0.56755886 68.2504643 0.47569722 71 0 C73.17059032 -0.08147598 75.34352851 -0.10752942 77.515625 -0.09765625 C78.76601563 -0.09443359 80.01640625 -0.09121094 81.3046875 -0.08789062 C83.25761719 -0.07532227 83.25761719 -0.07532227 85.25 -0.0625 C86.56742188 -0.05798828 87.88484375 -0.05347656 89.2421875 -0.04882812 C92.49483741 -0.03704316 95.74739584 -0.02059011 99 0 C98.30502275 5.25737836 97.17944145 7.43379101 93.4375 11.25 C88.63636107 16.27850282 84.27412652 21.51933962 80 27 C78.69478149 28.6601102 77.38792142 30.3189185 76.08081055 31.97753906 C75.15254515 33.15840586 74.22691855 34.3413518 73.30395508 35.52636719 C70.85392413 38.66903012 68.36991947 41.77264068 65.81640625 44.83203125 C65.30311768 45.4569043 64.7898291 46.08177734 64.26098633 46.72558594 C63.27427469 47.92513649 62.27582102 49.11515034 61.2644043 50.29394531 C58.5959885 53.47285297 58.5959885 53.47285297 58.20874023 57.44750977 C59.04103357 60.1323684 59.99296172 61.71226256 61.73828125 63.8984375 C62.58894165 64.97750366 62.58894165 64.97750366 63.45678711 66.07836914 C64.06917236 66.83625732 64.68155762 67.59414551 65.3125 68.375 C66.25331421 69.56113892 66.25331421 69.56113892 67.21313477 70.77124023 C69.13330958 73.1879911 71.06556149 75.59465876 73 78 C74.11777183 79.39927301 75.23499323 80.79898596 76.3515625 82.19921875 C78.3590892 84.71433121 80.37113946 87.22571262 82.38671875 89.734375 C85.07373489 93.08377187 87.71548219 96.46634966 90.33203125 99.87109375 C91.5974732 101.48623629 92.8918428 103.07876545 94.19921875 104.66015625 C94.93785156 105.55605469 95.67648437 106.45195312 96.4375 107.375 C97.11683594 108.18710938 97.79617188 108.99921875 98.49609375 109.8359375 C100 112 100 112 100 115 C95.48408344 115.3245407 90.97509062 115.55852616 86.45019531 115.71411133 C84.916766 115.77899709 83.38412591 115.86736482 81.85351562 115.98071289 C69.53174048 116.86945712 69.53174048 116.86945712 65.36383057 113.7918396 C61.92470422 110.28895728 59.49990668 106.19776257 57 102 C56.0401729 100.72262839 55.05916063 99.46024357 54.0390625 98.23046875 C47.19723805 89.60622725 40.57183373 80.83125998 34 72 C29.74187615 74.68063879 29.74187615 74.68063879 27.42486572 78.92202759 C27.21081048 81.23109646 27.16912943 83.4818982 27.1953125 85.80078125 C27.18160614 86.63715622 27.16789978 87.47353119 27.15377808 88.33525085 C27.11652045 90.9948832 27.1201897 93.65264403 27.125 96.3125 C27.1068701 98.12047184 27.08606648 99.92841898 27.0625 101.73632812 C27.00567358 106.15864169 27.00424765 110.5760771 27 115 C18.09 115 9.18 115 0 115 C0 77.05 0 39.1 0 0 Z " fill="#E33E44" transform="translate(776,96)"/>
<path d="M0 0 C8.91 0 17.82 0 27 0 C27.495 20.295 27.495 20.295 28 41 C32.95 38.525 32.95 38.525 38 36 C48.28524207 33.42868948 59.88195538 33.74227333 69.44921875 38.453125 C79.57651577 44.5946405 85.02384127 52.72371191 88.2734375 64.03125 C89.31331421 68.87894776 89.40044802 73.74476576 89.4375 78.6875 C89.4475708 79.5539917 89.4576416 80.4204834 89.46801758 81.31323242 C89.35373475 89.8568867 87.16812859 97.53210295 83 105 C82.484375 105.94875 81.96875 106.8975 81.4375 107.875 C80.963125 108.57625 80.48875 109.2775 80 110 C79.34 110 78.68 110 78 110 C77.505 111.485 77.505 111.485 77 113 C75.21484375 114.5 75.21484375 114.5 72.9375 116 C72.20402344 116.495 71.47054687 116.99 70.71484375 117.5 C63.82582579 121.30630633 57.91497613 122.50328617 50.0625 122.4375 C49.22009766 122.45748047 48.37769531 122.47746094 47.50976562 122.49804688 C39.74700159 122.49207092 32.92334296 120.15073301 27 115 C26.34 116.65 25.68 118.3 25 120 C16.75 120 8.5 120 0 120 C0 80.4 0 40.8 0 0 Z M29.30859375 61.80859375 C25.664094 66.84676007 26.2750031 71.88102134 26.375 77.9375 C26.35566406 79.10474609 26.33632813 80.27199219 26.31640625 81.47460938 C26.23665016 88.57345406 26.23665016 88.57345406 29.3671875 94.69921875 C34.25431359 98.97001588 38.32192723 100.59658937 44.76171875 100.34765625 C49.84162674 99.5586304 53.42449095 96.87847942 56.8125 93.125 C61.42214196 86.5397972 61.95923412 79.87165323 61 72 C59.37630169 66.89893921 57.18698941 63.1317806 53.3125 59.4375 C44.50096511 55.61362637 37.13151034 56.55168463 29.30859375 61.80859375 Z " fill="#E44B50" transform="translate(479,91)"/>
<path d="M0 0 C1.26481201 0.00132935 1.26481201 0.00132935 2.55517578 0.00268555 C8.9619626 0.12444293 14.1383728 1.14019837 19.75 4.375 C20.78125 4.9525 21.8125 5.53 22.875 6.125 C23.803125 6.74375 23.803125 6.74375 24.75 7.375 C25.41 5.725 26.07 4.075 26.75 2.375 C34.67 2.375 42.59 2.375 50.75 2.375 C50.75 29.765 50.75 57.155 50.75 85.375 C42.83 85.375 34.91 85.375 26.75 85.375 C26.09 83.395 25.43 81.415 24.75 79.375 C24.00234375 79.86871094 23.2546875 80.36242187 22.484375 80.87109375 C21.49953125 81.51175781 20.5146875 82.15242188 19.5 82.8125 C18.52546875 83.45058594 17.5509375 84.08867187 16.546875 84.74609375 C8.22710372 89.59154713 -4.77766982 88.58126633 -13.8828125 86.57421875 C-24.52728945 82.5304292 -31.92545003 75.15450663 -37.09375 65.1484375 C-42.25952818 52.75755066 -42.2026552 36.76412425 -37.58203125 24.17578125 C-32.02884389 12.49943128 -24.3441341 6.08444944 -12.578125 1.28515625 C-8.32553259 0.12218204 -4.390514 -0.00823492 0 0 Z M-7.125 28.125 C-11.70151374 35.12437395 -13.46779738 41.06666272 -12.25 49.375 C-9.90110054 56.2767046 -6.74861424 60.76903742 -0.40234375 64.4453125 C3.52971088 66.14373174 7.55675953 65.90663112 11.75 65.375 C16.89885663 62.8491458 21.35928143 58.9130457 23.50390625 53.45703125 C25.71677232 45.45666929 25.0781649 37.96972216 21.75 30.375 C19.10057358 26.46508889 16.54042366 24.67481587 12.125 23 C4.73812517 21.63206022 -1.65959265 22.89721906 -7.125 28.125 Z " fill="#E4494F" transform="translate(614.25,125.625)"/>
<path d="M0 0 C0.80695313 0.43570313 1.61390625 0.87140625 2.4453125 1.3203125 C11.59406086 6.84579418 16.78652652 15.25284283 19.6875 25.40625 C21.58552372 33.73646523 21.39904149 41.60575108 20 50 C1.52 50 -16.96 50 -36 50 C-32.45317895 55.91136841 -29.13347238 57.63762071 -23.125 60.25 C-14.08125806 62.42049807 -4.86997302 60.4780425 3.609375 56.8984375 C6 56 6 56 10 56 C10.40992188 56.75925781 10.81984375 57.51851562 11.2421875 58.30078125 C11.78101563 59.29464844 12.31984375 60.28851563 12.875 61.3125 C13.40867187 62.29863281 13.94234375 63.28476563 14.4921875 64.30078125 C16.00722126 67.09586458 16.00722126 67.09586458 18 70 C18.03515625 71.9609375 18.03515625 71.9609375 17 74 C14.80239854 75.41338275 12.78434332 76.5280267 10.4375 77.625 C9.84130859 77.9240625 9.24511719 78.223125 8.63085938 78.53125 C-5.20821487 85.23571041 -23.79242804 85.46037474 -38.375 81 C-48.37841107 76.97602899 -57.43304067 71.05905833 -62 61 C-67.04442159 46.75227631 -67.75555331 33.15393413 -61.7109375 18.9765625 C-55.76245556 7.3658892 -47.86669762 1.96549759 -36 -3 C-25.0123128 -6.189379 -10.01111607 -5.4269013 0 0 Z M-34.375 23.4375 C-36.64789925 26.15404001 -37.08892065 27.35568261 -38 31 C-27.77 31 -17.54 31 -7 31 C-7.52030398 24.32420914 -7.52030398 24.32420914 -11.4375 20.625 C-12.05496094 20.14289063 -12.67242188 19.66078125 -13.30859375 19.1640625 C-20.5038244 14.21214857 -28.94086663 17.3938099 -34.375 23.4375 Z " fill="#E44C52" transform="translate(934,130)"/>
<path d="M0 0 C10.23 0 20.46 0 31 0 C32.55460938 4.26550781 32.55460938 4.26550781 34.140625 8.6171875 C35.15636819 11.40085143 36.17264165 14.18432123 37.18896484 16.96777344 C37.88971371 18.88781889 38.58991963 20.80806261 39.28955078 22.72851562 C40.30094613 25.50444237 41.31435556 28.27962703 42.328125 31.0546875 C42.63558655 31.8998996 42.9430481 32.74511169 43.25982666 33.61593628 C45.39641534 39.45644738 47.66126537 45.23755767 50 51 C50.37286133 49.84588623 50.74572266 48.69177246 51.12988281 47.50268555 C52.52939778 43.17260491 53.93155882 38.84338479 55.33447266 34.5144043 C55.93837176 32.64972491 56.54157727 30.78482074 57.14404297 28.91967773 C58.01602593 26.22057956 58.89059844 23.52233153 59.765625 20.82421875 C60.02933899 20.00604172 60.29305298 19.18786469 60.5647583 18.34489441 C62.57242097 12.16670801 64.77611802 6.11567543 67 0 C76.9 0 86.8 0 97 0 C96.21346084 5.50577415 95.17710587 9.61769593 93.05078125 14.59375 C92.75568161 15.30293579 92.46058197 16.01212158 92.15653992 16.74279785 C91.21612593 18.99846783 90.26473801 21.24929964 89.3125 23.5 C88.38466302 25.71341179 87.45913952 27.92778132 86.53373718 30.14221191 C85.91788372 31.61520459 85.30102448 33.08777713 84.68318176 34.55993652 C82.74310425 39.1894352 80.85392206 43.83531286 79 48.5 C75.97451405 56.1083185 72.81746669 63.65843447 69.64898682 71.20809937 C64.45005344 83.60082124 59.3247174 96.00790167 54.52612305 108.5625 C54.20039307 109.41199219 53.87466309 110.26148438 53.5390625 111.13671875 C53.26271973 111.86592529 52.98637695 112.59513184 52.70166016 113.34643555 C52 115 52 115 51 116 C48.85441173 116.08775605 46.70595579 116.10695219 44.55859375 116.09765625 C43.25341797 116.09443359 41.94824219 116.09121094 40.60351562 116.08789062 C39.2148431 116.07953401 37.82617123 116.07106905 36.4375 116.0625 C35.04492344 116.05748666 33.65234519 116.05292347 32.25976562 116.04882812 C28.8398013 116.03699434 25.41992156 116.0205088 22 116 C22.53128052 111.15463042 23.53185456 107.23986793 25.5390625 102.8046875 C26.03664063 101.67675781 26.53421875 100.54882812 27.046875 99.38671875 C28.10319316 97.03614938 29.16312 94.68719853 30.2265625 92.33984375 C30.9690625 90.65181641 30.9690625 90.65181641 31.7265625 88.9296875 C32.18627441 87.91116699 32.64598633 86.89264648 33.11962891 85.84326172 C34.94137994 79.95970306 31.8128001 74.93845191 29.421875 69.59765625 C28.8769339 68.36373642 28.8769339 68.36373642 28.32098389 67.10488892 C27.13515486 64.42207572 25.94255659 61.74232851 24.75 59.0625 C23.52034036 56.28480643 22.29245653 53.50633245 21.06469727 50.72779846 C20.23892846 48.85925199 19.41259185 46.99095636 18.58569336 45.12290955 C14.56398038 36.03273706 10.61198946 26.91301878 6.68005371 17.78372192 C5.92293285 16.02603681 5.16462209 14.26886438 4.40625 12.51171875 C3.98666016 11.53678467 3.56707031 10.56185059 3.13476562 9.55737305 C2.05418895 7.03903164 2.05418895 7.03903164 0.84960938 4.84301758 C0 3 0 3 0 0 Z " fill="#E3474D" transform="translate(954,128)"/>
<path d="M0 0 C7.72325223 5.34270513 11.34832051 11.4253252 13.56918335 20.46730042 C14.46865418 25.75514013 14.24028777 31.12103732 14.1953125 36.46875 C14.1924826 37.74480103 14.18965271 39.02085205 14.18673706 40.33557129 C14.17747997 43.70247059 14.15955962 47.06909082 14.1373291 50.43591309 C14.11674672 53.8817298 14.10759888 57.32757637 14.09765625 60.7734375 C14.07737243 67.51578038 14.03821237 74.25763978 14 81 C5.09 81 -3.82 81 -13 81 C-13.02578125 77.49503906 -13.0515625 73.99007812 -13.078125 70.37890625 C-13.11659915 66.96321779 -13.16174227 63.54767755 -13.20751953 60.13208008 C-13.23564722 57.76854597 -13.25690231 55.40491922 -13.27099609 53.04125977 C-13.29253874 49.63249568 -13.33924927 46.22483579 -13.390625 42.81640625 C-13.39185364 41.76916885 -13.39308228 40.72193146 -13.39434814 39.64295959 C-13.52238419 33.14748432 -14.34848893 27.51978944 -18 22 C-22.62913095 18.9139127 -26.50598968 18.59307009 -31.8515625 19.4140625 C-36.03472331 20.55492454 -38.98890233 22.98890233 -42 26 C-42.33145587 28.4255024 -42.33145587 28.4255024 -42.31884766 31.27587891 C-42.33871735 32.3768692 -42.35858704 33.4778595 -42.37905884 34.61221313 C-42.39638565 36.40131607 -42.39638565 36.40131607 -42.4140625 38.2265625 C-42.43342865 39.44451508 -42.4527948 40.66246765 -42.4727478 41.91732788 C-42.53268215 45.8198133 -42.57898471 49.72232799 -42.625 53.625 C-42.66316699 56.2656381 -42.70221795 58.90626357 -42.7421875 61.546875 C-42.84006389 68.03118555 -42.91952434 74.51535641 -43 81 C-52.24 81 -61.48 81 -71 81 C-71 53.61 -71 26.22 -71 -2 C-62.75 -2 -54.5 -2 -46 -2 C-45.67 -0.02 -45.34 1.96 -45 4 C-44.18015625 3.50628906 -43.3603125 3.01257813 -42.515625 2.50390625 C-41.43796875 1.86324219 -40.3603125 1.22257813 -39.25 0.5625 C-38.18265625 -0.07558594 -37.1153125 -0.71367187 -36.015625 -1.37109375 C-26.17263371 -6.68783905 -9.33671992 -5.9607308 0 0 Z " fill="#E54C52" transform="translate(749,130)"/>
<path d="M0 0 C1.37671875 -0.00386719 1.37671875 -0.00386719 2.78125 -0.0078125 C5.45004454 0.12255965 7.89865153 0.53121394 10.5 1.125 C9.72095672 16.86987472 9.72095672 16.86987472 7.5 24.125 C6.43072266 24.10759766 6.43072266 24.10759766 5.33984375 24.08984375 C-3.24563368 24.00895769 -9.59303112 24.06771117 -16.80078125 29.06640625 C-18.5 30.125 -18.5 30.125 -20.5 30.125 C-20.644375 30.7025 -20.78875 31.28 -20.9375 31.875 C-21.27979271 33.24417084 -21.63742228 34.60978178 -22.02232361 35.96759033 C-22.54444717 38.32574416 -22.65988925 40.47911429 -22.70532227 42.89355469 C-22.72526749 43.83422791 -22.74521271 44.77490112 -22.76576233 45.74407959 C-22.79083107 47.25521332 -22.79083107 47.25521332 -22.81640625 48.796875 C-22.83718735 49.83442932 -22.85796844 50.87198364 -22.87937927 51.940979 C-22.94471408 55.25225258 -23.00368517 58.56360482 -23.0625 61.875 C-23.10570049 64.12110185 -23.14931527 66.36719578 -23.19335938 68.61328125 C-23.3011579 74.11710807 -23.40035123 79.62099543 -23.5 85.125 C-32.08 85.125 -40.66 85.125 -49.5 85.125 C-50.22892325 74.06504003 -50.64073071 63.10999756 -50.59765625 52.02734375 C-50.59578308 50.571905 -50.59436345 49.11646561 -50.59336853 47.661026 C-50.58961393 43.89486847 -50.57984722 40.12875168 -50.56866455 36.36260986 C-50.55829544 32.49369864 -50.55383828 28.6247806 -50.54882812 24.75585938 C-50.53821589 17.21221917 -50.52067966 9.66862056 -50.5 2.125 C-42.25 2.125 -34 2.125 -25.5 2.125 C-25.17 4.105 -24.84 6.085 -24.5 8.125 C-22.85 7.795 -21.2 7.465 -19.5 7.125 C-19.5 6.465 -19.5 5.805 -19.5 5.125 C-18.10721983 4.47260842 -16.71060788 3.82839448 -15.3125 3.1875 C-14.53519531 2.82785156 -13.75789063 2.46820313 -12.95703125 2.09765625 C-8.63112685 0.38517581 -4.62856214 -0.01300158 0 0 Z " fill="#E4464C" transform="translate(462.5,125.875)"/>
<path d="M0 0 C8.58 0 17.16 0 26 0 C26 0.33 26 0.66 26 1 C17.75 1 9.5 1 1 1 C1 38.29 1 75.58 1 114 C9.25 114 17.5 114 26 114 C25.91878906 111.33808594 25.83757813 108.67617187 25.75390625 105.93359375 C25.69922474 103.33884513 25.65677374 100.74416207 25.61547852 98.14916992 C25.58039859 96.35362756 25.53271918 94.55828341 25.47192383 92.76342773 C24.97753668 77.7864052 24.97753668 77.7864052 27.58935547 73.22314453 C29.31251162 71.49998838 30.87879191 70.18649633 33 69 C36.5707206 72.43823803 39.63142133 75.96775437 42.625 79.9375 C43.50065651 81.09033439 44.37698265 82.24266039 45.25390625 83.39453125 C45.92897217 84.28325928 45.92897217 84.28325928 46.61767578 85.18994141 C48.90735707 88.18812174 51.23235921 91.15821319 53.5625 94.125 C54.01681396 94.70467529 54.47112793 95.28435059 54.93920898 95.8815918 C58.67430916 100.62910246 62.51986432 105.27570627 66.41796875 109.890625 C68 112 68 112 68 114 C77.9 113.67 87.8 113.34 98 113 C95.5559375 110.15375 95.5559375 110.15375 93.0625 107.25 C88.61881174 102.03024207 84.43981863 96.67159443 80.37109375 91.15234375 C77.69836263 87.59897635 74.92028856 84.14446661 72.125 80.6875 C70.07672961 78.13022135 68.03775479 75.56566064 66 73 C65.45859375 72.32372559 64.9171875 71.64745117 64.359375 70.95068359 C62.76124638 68.94018071 61.19035914 66.91107385 59.625 64.875 C59.13016113 64.25971436 58.63532227 63.64442871 58.12548828 63.01049805 C56.7890625 61.2421875 56.7890625 61.2421875 55 58 C55.73864237 53.64134457 58.74269377 50.48167015 61.4375 47.0625 C61.87852051 46.50038818 62.31954102 45.93827637 62.77392578 45.35913086 C63.70777434 44.1698637 64.64402409 42.98247857 65.58251953 41.796875 C66.96059735 40.04994893 68.32414898 38.29269987 69.68359375 36.53125 C74.83516241 29.87819555 80.13471782 23.38917117 85.67724609 17.05688477 C89.65666821 12.49005057 93.25896912 7.80989685 97 3 C87.43 2.67 77.86 2.34 68 2 C67.34 3.32 66.68 4.64 66 6 C64.2693588 8.47499923 62.37510146 10.82060836 60.5 13.1875 C60.00113281 13.82880859 59.50226562 14.47011719 58.98828125 15.13085938 C55.25178299 19.8741085 55.25178299 19.8741085 53 21 C54.65648439 17.27514862 56.97473765 14.23515579 59.4375 11 C60.21996094 9.96875 61.00242187 8.9375 61.80859375 7.875 C62.53175781 6.92625 63.25492188 5.9775 64 5 C64.50660156 4.236875 65.01320313 3.47375 65.53515625 2.6875 C67.37538293 0.56755886 68.2504643 0.47569722 71 0 C73.17059032 -0.08147598 75.34352851 -0.10752942 77.515625 -0.09765625 C78.76601563 -0.09443359 80.01640625 -0.09121094 81.3046875 -0.08789062 C83.25761719 -0.07532227 83.25761719 -0.07532227 85.25 -0.0625 C86.56742188 -0.05798828 87.88484375 -0.05347656 89.2421875 -0.04882812 C92.49483741 -0.03704316 95.74739584 -0.02059011 99 0 C98.30502275 5.25737836 97.17944145 7.43379101 93.4375 11.25 C88.63636107 16.27850282 84.27412652 21.51933962 80 27 C78.69478149 28.6601102 77.38792142 30.3189185 76.08081055 31.97753906 C75.15254515 33.15840586 74.22691855 34.3413518 73.30395508 35.52636719 C70.85392413 38.66903012 68.36991947 41.77264068 65.81640625 44.83203125 C65.30311768 45.4569043 64.7898291 46.08177734 64.26098633 46.72558594 C63.27427469 47.92513649 62.27582102 49.11515034 61.2644043 50.29394531 C58.5959885 53.47285297 58.5959885 53.47285297 58.20874023 57.44750977 C59.04103357 60.1323684 59.99296172 61.71226256 61.73828125 63.8984375 C62.58894165 64.97750366 62.58894165 64.97750366 63.45678711 66.07836914 C64.06917236 66.83625732 64.68155762 67.59414551 65.3125 68.375 C66.25331421 69.56113892 66.25331421 69.56113892 67.21313477 70.77124023 C69.13330958 73.1879911 71.06556149 75.59465876 73 78 C74.11777183 79.39927301 75.23499323 80.79898596 76.3515625 82.19921875 C78.3590892 84.71433121 80.37113946 87.22571262 82.38671875 89.734375 C85.07373489 93.08377187 87.71548219 96.46634966 90.33203125 99.87109375 C91.5974732 101.48623629 92.8918428 103.07876545 94.19921875 104.66015625 C94.93785156 105.55605469 95.67648437 106.45195312 96.4375 107.375 C97.11683594 108.18710938 97.79617188 108.99921875 98.49609375 109.8359375 C100 112 100 112 100 115 C95.48408344 115.3245407 90.97509062 115.55852616 86.45019531 115.71411133 C84.916766 115.77899709 83.38412591 115.86736482 81.85351562 115.98071289 C69.53174048 116.86945712 69.53174048 116.86945712 65.36383057 113.7918396 C61.92470422 110.28895728 59.49990668 106.19776257 57 102 C56.0401729 100.72262839 55.05916063 99.46024357 54.0390625 98.23046875 C47.19723805 89.60622725 40.57183373 80.83125998 34 72 C29.74187615 74.68063879 29.74187615 74.68063879 27.42486572 78.92202759 C27.21081048 81.23109646 27.16912943 83.4818982 27.1953125 85.80078125 C27.18160614 86.63715622 27.16789978 87.47353119 27.15377808 88.33525085 C27.11652045 90.9948832 27.1201897 93.65264403 27.125 96.3125 C27.1068701 98.12047184 27.08606648 99.92841898 27.0625 101.73632812 C27.00567358 106.15864169 27.00424765 110.5760771 27 115 C18.09 115 9.18 115 0 115 C0 77.05 0 39.1 0 0 Z " fill="#F9DFDE" transform="translate(776,96)"/>
<path d="M0 0 C3.30055507 2.20037005 4.73542724 3.20628173 6 7 C6.42633567 12.37182947 6.42633567 12.37182947 6 15 C5.29875 15.61875 4.5975 16.2375 3.875 16.875 C3.25625 17.57625 2.6375 18.2775 2 19 C2.17111509 21.53897801 2.72819492 23.84955727 3.34765625 26.31640625 C4.28871555 30.18771006 4.61661595 34.03836485 5 38 C-0.94 38 -6.88 38 -13 38 C-13 32.07261541 -12.39216058 27.45317598 -11.14453125 21.76953125 C-10.96592771 18.34710117 -11.86064245 17.55873533 -14 15 C-14.4085132 10.71061143 -14.48025674 8.13745017 -12.8125 4.1875 C-8.96853379 -0.45176956 -5.84334069 -1.82604396 0 0 Z " fill="#FAE4D1" transform="translate(127,169)"/>
<path d="M0 0 C1.1653125 -0.00128906 2.330625 -0.00257812 3.53125 -0.00390625 C4.7584375 -0.00003906 5.985625 0.00382812 7.25 0.0078125 C9.09078125 0.00201172 9.09078125 0.00201172 10.96875 -0.00390625 C12.71671875 -0.00197266 12.71671875 -0.00197266 14.5 0 C15.57765625 0.00112793 16.6553125 0.00225586 17.765625 0.00341797 C20.25 0.1328125 20.25 0.1328125 21.25 1.1328125 C21.33897759 3.2168613 21.35685615 5.3039655 21.34765625 7.38989258 C21.34619598 8.04375946 21.34473572 8.69762634 21.3432312 9.37130737 C21.33941467 10.79763855 21.33328715 12.22396493 21.32516479 13.65027809 C21.3124131 15.91779651 21.30588669 18.18525639 21.30102539 20.45280457 C21.28763898 26.09568264 21.26365897 31.73850656 21.23962402 37.38134766 C21.21974471 42.13178396 21.20415376 46.88219814 21.19406128 51.63266563 C21.18765689 53.84807148 21.17513943 56.06338606 21.16235352 58.27876282 C21.1338843 66.28044271 21.41082447 74.17170232 22.25 82.1328125 C19.20320157 77.56261485 19.12730642 74.39933369 19.13647461 68.99926758 C19.13632858 68.27706528 19.13618256 67.55486298 19.1360321 66.81077576 C19.13672855 64.42460116 19.1445084 62.03850471 19.15234375 59.65234375 C19.15420888 57.9975336 19.15563234 56.34272289 19.15663147 54.68791199 C19.16044915 50.33300247 19.17027305 45.97812632 19.18133545 41.62322998 C19.19156567 37.17916312 19.19613255 32.73509087 19.20117188 28.29101562 C19.21189598 19.57159757 19.22948673 10.85221303 19.25 2.1328125 C11 2.1328125 2.75 2.1328125 -5.75 2.1328125 C-5.42 30.1828125 -5.09 58.2328125 -4.75 87.1328125 C-5.08 87.1328125 -5.41 87.1328125 -5.75 87.1328125 C-6.57674396 82.09402884 -6.89392079 77.21128306 -6.87939453 72.10205078 C-6.88114685 71.33210281 -6.88289917 70.56215485 -6.88470459 69.76887512 C-6.88907414 67.24693489 -6.88620424 64.72506583 -6.8828125 62.203125 C-6.88348653 60.44432563 -6.88445739 58.68552635 -6.88571167 56.92672729 C-6.88718164 53.2535513 -6.88505509 49.58039971 -6.88037109 45.90722656 C-6.87464894 41.18920534 -6.87797287 36.4712407 -6.88394356 31.75322151 C-6.88754661 28.12797616 -6.88641221 24.50274437 -6.88381577 20.87749863 C-6.88314709 19.13668689 -6.88397286 17.39587394 -6.88629532 15.65506363 C-6.88882036 13.23241119 -6.88498455 10.80985244 -6.87939453 8.38720703 C-6.88141876 7.66309128 -6.88344299 6.93897552 -6.88552856 6.19291687 C-6.85839261 -0.11972949 -6.15706955 0.0064443 0 0 Z " fill="#F9D4D5" transform="translate(307.75,95.8671875)"/>
<path d="M0 0 C2.97 0 5.94 0 9 0 C9 33.99 9 67.98 9 103 C9.66 103.33 10.32 103.66 11 104 C9.515 104.495 9.515 104.495 8 105 C8 72.33 8 39.66 8 6 C5.36 6 2.72 6 0 6 C0 4.02 0 2.04 0 0 Z " fill="#E57778" transform="translate(113,237)"/>
<path d="M0 0 C9.9 0 19.8 0 30 0 C28.87501418 7.87490075 28.87501418 7.87490075 27.63305664 10.83642578 C27.35929703 11.50046417 27.08553741 12.16450256 26.80348206 12.84866333 C26.36128578 13.88650467 26.36128578 13.88650467 25.91015625 14.9453125 C25.45327675 16.04466629 25.45327675 16.04466629 24.98716736 17.16622925 C24.01985969 19.48907351 23.04146439 21.80704784 22.0625 24.125 C21.40875171 25.68848723 20.75574984 27.25228679 20.10351562 28.81640625 C18.90577556 31.68704001 17.70327609 34.55558603 16.49633789 37.42236328 C15.30441083 40.27217552 14.1356264 43.12743112 13 46 C11.76363192 42.29089577 12.3848132 41.38481984 13.84375 37.8359375 C14.26285645 36.80331787 14.68196289 35.77069824 15.11376953 34.70678711 C15.57122559 33.60729736 16.02868164 32.50780762 16.5 31.375 C16.95616699 30.25810791 17.41233398 29.14121582 17.88232422 27.99047852 C19.24611475 24.65663535 20.62220259 21.3280742 22 18 C22.74302625 16.18914601 23.48529354 14.37798029 24.2265625 12.56640625 C25.80635371 8.70606206 27.40307161 4.85345763 29 1 C19.76 1 10.52 1 1 1 C0.34 3.97 -0.32 6.94 -1 10 C-1.98109236 12.85018072 -3.0747458 15.62454791 -4.1953125 18.421875 C-5.13149945 20.96688121 -5.13149945 20.96688121 -4.9921875 23.62109375 C-5.0039419 27.2003099 -6.91904563 29.20371756 -9 32 C-10.33026868 28.00919397 -9.30441533 26.30507545 -7.91015625 22.36328125 C-7.68678085 21.72384079 -7.46340546 21.08440033 -7.23326111 20.42558289 C-6.51815452 18.38478818 -5.79052623 16.34871711 -5.0625 14.3125 C-4.57534036 12.92932904 -4.08900206 11.54586851 -3.60351562 10.16210938 C-2.41335513 6.77066059 -1.20636929 3.38589061 0 0 Z " fill="#F8DDDC" transform="translate(1021,128)"/>
<path d="M0 0 C0.33 0 0.66 0 1 0 C1.00808685 0.92850266 1.01617371 1.85700531 1.02450562 2.81364441 C1.10247957 11.56831194 1.18977887 20.32282629 1.28752708 29.07729626 C1.33745096 33.57794811 1.38378136 38.07857694 1.421875 42.5793457 C1.45877717 46.9236719 1.50515054 51.26780362 1.55806351 55.61196327 C1.57658125 57.26849261 1.59169888 58.9250636 1.60334396 60.5816555 C1.62025138 62.9038416 1.64929679 65.22558487 1.68115234 67.54760742 C1.68331253 68.23093643 1.68547272 68.91426544 1.68769836 69.61830139 C1.75568128 73.50317088 2.3109371 76.49420177 4 80 C3.01 80 2.02 80 1 80 C-0.50252915 76.9949417 -0.12992759 73.90743067 -0.11352539 70.61279297 C-0.11367142 69.85172241 -0.11381744 69.09065186 -0.1139679 68.30651855 C-0.11326993 65.78504611 -0.10548294 63.26364708 -0.09765625 60.7421875 C-0.09579166 58.99626709 -0.09436795 57.25034616 -0.09336853 55.50442505 C-0.08954659 50.90454672 -0.07971905 46.30469986 -0.06866455 41.70483398 C-0.05844349 37.0128624 -0.05386942 32.32088575 -0.04882812 27.62890625 C-0.03809651 18.41925699 -0.02102394 9.20963111 0 0 Z " fill="#E53D44" transform="translate(135,48)"/>
<path d="M0 0 C2.64 0.33 5.28 0.66 8 1 C8 2.65 8 4.3 8 6 C5.36 6 2.72 6 0 6 C0 4.02 0 2.04 0 0 Z " fill="#FAEDE4" transform="translate(113,237)"/>
<path d="M0 0 C1.24932534 4.17939773 0.32131426 6.9599606 -1 11 C-1.71031284 13.31189274 -2.41850987 15.62443622 -3.125 17.9375 C-3.74931391 19.9585454 -4.37408521 21.97944982 -5 24 C-5.66 24 -6.32 24 -7 24 C-6.38550897 20.70316638 -5.61092094 17.5490506 -4.58984375 14.35546875 C-4.32236328 13.51435547 -4.05488281 12.67324219 -3.77929688 11.80664062 C-3.50150391 10.94232422 -3.22371094 10.07800781 -2.9375 9.1875 C-2.65583984 8.30384766 -2.37417969 7.42019531 -2.08398438 6.50976562 C-1.39170818 4.33906909 -0.69697845 2.16919035 0 0 Z " fill="#F6D4D3" transform="translate(1010,160)"/>
<path d="M0 0 C0.99 0.33 1.98 0.66 3 1 C1.62845496 3.95409701 0.01136276 6.44008376 -2 9 C-1.34 6.03 -0.68 3.06 0 0 Z " fill="#F1B0B1" transform="translate(1013,151)"/>
<path d="M0 0 C0.66 0.66 1.32 1.32 2 2 C1.34 2 0.68 2 0 2 C0 1.34 0 0.68 0 0 Z " fill="#FEF8F6" transform="translate(143,297)"/>
<path d="M0 0 C2 1 2 1 2 1 Z " fill="#FEF9F6" transform="translate(137,337)"/>
<path d="" fill="#FEFAF8" transform="translate(0,0)"/>
<path d="" fill="#FEF8F6" transform="translate(0,0)"/>
<path d="" fill="#FEFAF7" transform="translate(0,0)"/>
<path d="" fill="#FDF9F6" transform="translate(0,0)"/>
<path d="" fill="#FEF9F6" transform="translate(0,0)"/>
<path d="" fill="#FEF9F6" transform="translate(0,0)"/>
<path d="" fill="#FEF9F6" transform="translate(0,0)"/>
<path d="" fill="#FEF9F7" transform="translate(0,0)"/>
<path d="" fill="#FEF9F7" transform="translate(0,0)"/>
<path d="" fill="#FDF9F6" transform="translate(0,0)"/>
<path d="" fill="#FDF9F6" transform="translate(0,0)"/>
<path d="" fill="#FDF9F6" transform="translate(0,0)"/>
<path d="" fill="#FDF9F6" transform="translate(0,0)"/>
<path d="" fill="#FEF9F7" transform="translate(0,0)"/>
<path d="" fill="#FDF8F7" transform="translate(0,0)"/>
</svg>
